<svg width="76" height="48" viewBox="0 0 76 48" fill="none" xmlns="http://www.w3.org/2000/svg">
<g clip-path="url(#clip0_9_5832)">
<path opacity="0.07" d="M69.4348 0H5.95156C2.57901 0 0 2.57901 0 5.95156V41.6609C0 45.0335 2.77739 47.6125 5.95156 47.6125H69.4348C72.8074 47.6125 75.3864 45.0335 75.3864 41.6609V5.95156C75.3864 2.57901 72.609 0 69.4348 0Z" fill="black"/>
<path d="M69.4354 1.98389C71.6176 1.98389 73.4031 3.76935 73.4031 5.95159V41.6609C73.4031 43.8432 71.6176 45.6286 69.4354 45.6286H5.95208C3.76984 45.6286 1.98438 43.8432 1.98438 41.6609V5.95159C1.98438 3.76935 3.76984 1.98389 5.95208 1.98389H69.4354Z" fill="white"/>
<path d="M47.4131 16.466C47.8099 14.4822 47.4131 13.0935 46.2228 11.9032C45.0325 10.5145 42.8502 9.91931 40.0728 9.91931H31.939C31.3439 9.91931 30.9471 10.3161 30.7487 10.9112L27.7729 30.9481C27.7729 31.3449 27.9713 31.7417 28.3681 31.7417H33.7245L34.518 24.9966L38.089 20.6321L47.4131 16.466Z" fill="#003087"/>
<path d="M47.4133 16.4661L47.0165 16.8628C46.0246 22.4176 42.652 24.4015 37.8908 24.4015H35.7085C35.1134 24.4015 34.7166 24.7982 34.5182 25.3934L33.3279 33.1304L32.9312 35.1143C32.9312 35.511 33.1295 35.9078 33.5263 35.9078H37.6924C38.2876 35.9078 38.6843 35.511 38.6843 35.1143V34.9159L39.4779 30.1546V29.9563C39.4779 29.5595 40.073 29.1627 40.4698 29.1627H41.0649C45.231 29.1627 48.4052 27.5756 49.1987 22.8144C49.5955 20.8305 49.3971 19.2435 48.4052 18.0531C48.2068 17.0612 47.81 16.6644 47.4133 16.4661Z" fill="#3086C8"/>
<path d="M46.2223 16.0693C46.0239 15.8709 45.8255 15.8709 45.6272 15.8709C45.4288 15.8709 45.2304 15.8709 45.032 15.6725C44.4368 15.4741 43.6433 15.4741 42.8498 15.4741H36.8982C36.6998 15.4741 36.5014 15.4741 36.5014 15.6725C36.1047 15.8709 35.9063 16.0693 35.9063 16.466L34.5176 25.195V25.3934C34.5176 24.7982 35.1127 24.4015 35.7079 24.4015H38.2869C43.2465 24.4015 46.4207 22.4176 47.4126 16.8628V16.466C47.2142 16.2677 46.8175 16.0693 46.4207 16.0693H46.2223Z" fill="#012169"/>
</g>
<defs>
<clipPath id="clip0_9_5832">
<rect width="75.3864" height="47.6125" fill="white"/>
</clipPath>
</defs>
</svg>
